<svg xmlns="http://www.w3.org/2000/svg" xmlns:xlink="http://www.w3.org/1999/xlink" width="356" zoomAndPan="magnify" viewBox="0 0 267 83.249999" height="111" preserveAspectRatio="xMidYMid meet" version="1.0"><defs><g/><clipPath id="8aef637628"><path d="M 1.855469 9 L 65.035156 9 L 65.035156 73 L 1.855469 73 Z M 1.855469 9 " clip-rule="nonzero"/></clipPath></defs><g clip-path="url(#8aef637628)"><path fill="#ffb30b" d="M 23.582031 9.398438 C 20.007812 9.398438 16.578125 10.816406 14.050781 13.34375 L 1.855469 25.539062 L 1.855469 31.121094 C 1.855469 35.066406 3.550781 38.613281 6.25 41.078125 C 3.550781 43.542969 1.855469 47.089844 1.855469 51.035156 L 1.855469 56.617188 L 14.050781 68.8125 C 16.578125 71.339844 20.007812 72.757812 23.582031 72.757812 C 27.527344 72.757812 31.074219 71.066406 33.539062 68.363281 C 36.003906 71.066406 39.550781 72.757812 43.496094 72.757812 C 47.070312 72.757812 50.496094 71.339844 53.023438 68.8125 L 65.21875 56.617188 L 65.21875 51.035156 C 65.21875 47.089844 63.523438 43.542969 60.824219 41.078125 C 63.523438 38.613281 65.21875 35.066406 65.21875 31.121094 L 65.21875 25.539062 L 53.023438 13.34375 C 50.496094 10.816406 47.070312 9.398438 43.496094 9.398438 C 39.550781 9.398438 36.003906 11.089844 33.539062 13.789062 C 31.074219 11.089844 27.527344 9.398438 23.582031 9.398438 Z M 42.660156 41.078125 C 42.507812 40.9375 42.359375 40.796875 42.214844 40.652344 L 33.539062 31.976562 L 24.863281 40.652344 C 24.714844 40.796875 24.566406 40.9375 24.414062 41.078125 C 24.566406 41.214844 24.714844 41.359375 24.863281 41.503906 L 33.539062 50.179688 L 42.214844 41.503906 C 42.359375 41.359375 42.507812 41.214844 42.660156 41.078125 Z M 37.058594 56.617188 L 37.058594 59.28125 C 37.058594 62.835938 39.941406 65.71875 43.496094 65.71875 C 45.203125 65.71875 46.839844 65.039062 48.046875 63.832031 L 58.179688 53.699219 L 58.179688 51.035156 C 58.179688 47.480469 55.296875 44.597656 51.742188 44.597656 C 50.035156 44.597656 48.398438 45.277344 47.191406 46.484375 Z M 30.019531 56.617188 L 19.882812 46.484375 C 18.675781 45.277344 17.039062 44.597656 15.332031 44.597656 C 11.777344 44.597656 8.898438 47.480469 8.898438 51.035156 L 8.898438 53.699219 L 19.03125 63.832031 C 20.238281 65.039062 21.875 65.71875 23.582031 65.71875 C 27.136719 65.71875 30.019531 62.835938 30.019531 59.28125 Z M 30.019531 22.871094 L 30.019531 25.539062 L 19.882812 35.671875 C 18.675781 36.878906 17.039062 37.558594 15.332031 37.558594 C 11.777344 37.558594 8.898438 34.675781 8.898438 31.121094 L 8.898438 28.457031 L 19.03125 18.320312 C 20.238281 17.113281 21.875 16.4375 23.582031 16.4375 C 27.136719 16.4375 30.019531 19.316406 30.019531 22.871094 Z M 47.191406 35.671875 L 37.058594 25.539062 L 37.058594 22.871094 C 37.058594 19.316406 39.941406 16.4375 43.496094 16.4375 C 45.203125 16.4375 46.839844 17.113281 48.046875 18.320312 L 58.179688 28.457031 L 58.179688 31.121094 C 58.179688 34.675781 55.296875 37.558594 51.742188 37.558594 C 50.035156 37.558594 48.398438 36.878906 47.191406 35.671875 Z M 47.191406 35.671875 " fill-opacity="1" fill-rule="evenodd"/></g><g fill="#ffffff" fill-opacity="1"><g transform="translate(85.120576, 54.740819)"><g><path d="M 17.167969 0.605469 C 22.746094 0.605469 27.632812 -2.207031 30.1875 -6.53125 L 25.039062 -9.515625 C 23.613281 -6.875 20.628906 -5.234375 17.167969 -5.234375 C 11.246094 -5.234375 7.351562 -9.339844 7.351562 -15.136719 C 7.351562 -20.976562 11.246094 -25.082031 17.167969 -25.082031 C 20.628906 -25.082031 23.570312 -23.441406 25.039062 -20.757812 L 30.1875 -23.742188 C 27.589844 -28.066406 22.703125 -30.878906 17.167969 -30.878906 C 8 -30.878906 1.425781 -24.003906 1.425781 -15.136719 C 1.425781 -6.3125 8 0.605469 17.167969 0.605469 Z M 17.167969 0.605469 "/></g></g></g><g fill="#ffffff" fill-opacity="1"><g transform="translate(116.514921, 54.740819)"><g><path d="M 12.84375 0.605469 C 19.203125 0.605469 24.304688 -4.367188 24.304688 -10.8125 C 24.304688 -17.253906 19.203125 -22.230469 12.84375 -22.230469 C 6.488281 -22.230469 1.425781 -17.253906 1.425781 -10.8125 C 1.425781 -4.367188 6.488281 0.605469 12.84375 0.605469 Z M 12.84375 -4.84375 C 9.558594 -4.84375 7.007812 -7.308594 7.007812 -10.8125 C 7.007812 -14.316406 9.558594 -16.78125 12.84375 -16.78125 C 16.175781 -16.78125 18.726562 -14.316406 18.726562 -10.8125 C 18.726562 -7.308594 16.175781 -4.84375 12.84375 -4.84375 Z M 12.84375 -4.84375 "/></g></g></g><g fill="#ffffff" fill-opacity="1"><g transform="translate(142.201203, 54.740819)"><g><path d="M 14.574219 -22.230469 C 11.675781 -22.230469 9.429688 -21.148438 8.128906 -19.203125 L 8.128906 -21.625 L 2.550781 -21.625 L 2.550781 0 L 8.128906 0 L 8.128906 -11.675781 C 8.128906 -15.4375 10.164062 -17.039062 12.886719 -17.039062 C 15.394531 -17.039062 17.167969 -15.527344 17.167969 -12.585938 L 17.167969 0 L 22.746094 0 L 22.746094 -13.277344 C 22.746094 -19.027344 19.160156 -22.230469 14.574219 -22.230469 Z M 14.574219 -22.230469 "/></g></g></g><g fill="#ffffff" fill-opacity="1"><g transform="translate(167.152367, 54.740819)"><g><path d="M 14.921875 -16.261719 L 14.921875 -21.625 L 10.035156 -21.625 L 10.035156 -27.679688 L 4.453125 -25.992188 L 4.453125 -21.625 L 0.691406 -21.625 L 0.691406 -16.261719 L 4.453125 -16.261719 L 4.453125 -7.265625 C 4.453125 -1.425781 7.09375 0.863281 14.921875 0 L 14.921875 -5.058594 C 11.71875 -4.886719 10.035156 -4.929688 10.035156 -7.265625 L 10.035156 -16.261719 Z M 14.921875 -16.261719 "/></g></g></g><g fill="#ffffff" fill-opacity="1"><g transform="translate(183.800894, 54.740819)"><g><path d="M 18.984375 -21.625 L 18.984375 -19.070312 C 17.429688 -21.019531 15.09375 -22.230469 11.9375 -22.230469 C 6.183594 -22.230469 1.425781 -17.253906 1.425781 -10.8125 C 1.425781 -4.367188 6.183594 0.605469 11.9375 0.605469 C 15.09375 0.605469 17.429688 -0.605469 18.984375 -2.550781 L 18.984375 0 L 24.5625 0 L 24.5625 -21.625 Z M 12.972656 -4.714844 C 9.558594 -4.714844 7.007812 -7.179688 7.007812 -10.8125 C 7.007812 -14.445312 9.558594 -16.910156 12.972656 -16.910156 C 16.433594 -16.910156 18.984375 -14.445312 18.984375 -10.8125 C 18.984375 -7.179688 16.433594 -4.714844 12.972656 -4.714844 Z M 12.972656 -4.714844 "/></g></g></g><g fill="#ffffff" fill-opacity="1"><g transform="translate(210.870956, 54.740819)"><g><path d="M 22.488281 0 L 13.535156 -10.941406 L 22.230469 -21.625 L 15.570312 -21.625 L 8.128906 -12.109375 L 8.128906 -30.273438 L 2.550781 -30.273438 L 2.550781 0 L 8.128906 0 L 8.128906 -9.816406 L 16 0 Z M 22.488281 0 "/></g></g></g><g fill="#ffffff" fill-opacity="1"><g transform="translate(233.573486, 54.740819)"><g><path d="M 14.921875 -16.261719 L 14.921875 -21.625 L 10.035156 -21.625 L 10.035156 -27.679688 L 4.453125 -25.992188 L 4.453125 -21.625 L 0.691406 -21.625 L 0.691406 -16.261719 L 4.453125 -16.261719 L 4.453125 -7.265625 C 4.453125 -1.425781 7.09375 0.863281 14.921875 0 L 14.921875 -5.058594 C 11.71875 -4.886719 10.035156 -4.929688 10.035156 -7.265625 L 10.035156 -16.261719 Z M 14.921875 -16.261719 "/></g></g></g></svg>